<svg xmlns="http://www.w3.org/2000/svg" viewBox="0 0 1126.26 1128.76"><g><path d="M563.13 0c311 0 563.13 248.51 563.13 554.95 0 239.1-181.44 530.91-484.19 530.91-140.12 0-334.84-99.07-382.42-304.07 12.25 159.12 115.13 268.48 274.22 347-163.37-18.41-279.79-98.12-339.52-251.84 1.87 63.29 12.73 106.31 26.12 143.64-75.85-76.88-104.47-186-104.47-263C116 556.45 321.82 324.11 617.81 446 419.45 335.62 161.39 426.4 73.09 681c35.44-267.38 199.67-360 363.77-360 139.85 0 307.8 78.35 302.21 291-55.1-53.69-113.43-88.66-182.4-88.66-93 0-153.29 74.57-153.29 147.57 0 119.29 130.19 231.51 262.06 231.51 162.17 0 319.2-146.22 319.2-329.62 0-275.71-222.73-451.51-478-451.51-269 0-487.05 224.43-487.05 501.17a515.5 515.5 0 0 0 15.15 124.75A546.38 546.38 0 0 1 0 554.95C0 248.51 252.17 0 563.13 0z" fill="#1494d4" fill-rule="evenodd"></path></g></svg>