<svg data-v-627e8a35="" version="1.0" xmlns="http://www.w3.org/2000/svg" width="100%" height="100%" viewBox="0 0 340.000000 250.000000" preserveAspectRatio="xMidYMid meet" color-interpolation-filters="sRGB" class="el-tooltip" style="margin: auto;"><rect data-v-627e8a35="" x="0" y="0" width="100%" height="100%" fill="#fff" fill-opacity="0"></rect>  <g data-v-627e8a35="" fill="#5087fc" transform="translate(112.0696907043457,68.15131759643555)"><g transform="translate(27.92898178100586,0)"><rect fill="#5087fc" fill-opacity="0" x="0" y="0" width="60" height="59.226921192867"></rect> <svg x="0" y="0" width="60" height="59.226921192867"><svg xmlns="http://www.w3.org/2000/svg" viewBox="0 0 673.67 664.99"><g><g><path d="M429.66 207.38l40.5-156.51c5.19-20-7-39.76-27.53-42.82-19.38-2.89-39.31-5.05-59.48-6.57-20.66-1.48-32.55 14.14-26.5 33.94l52.66 172.4c6.06 19.8 15.17 19.61 20.35-.44z" fill="#42a5c4"></path><path d="M474.82 260.3l162.77-49.72c19.81-6.05 37.68-27.77 36-48.41s-6.7-39.1-15.42-54.2C638.83 74.53 595.58 48.55 540 30.37c-19.68-6.44-40.25 6-45.44 26L448.35 235c-5.18 20 6.65 31.35 26.47 25.3z" fill="#3499e0"></path><path d="M593.87 347.31L476 316.82c-20.05-5.19-31.4 6.66-25.35 26.47l52 170.13c6 19.81 21.67 22.93 34 6.26a846.4 846.4 0 0 0 77.89-128.91c9.06-18.61-.62-38.27-20.67-43.46z" fill="#1095c8"></path><path d="M503.62 298.13L603.47 324c20 5.19 42.55-6.2 49-25.9q5.72-17.56 10.05-34.61c5.09-20.07-8.37-31.79-28.18-25.74l-131.16 40.03c-19.81 6.05-19.61 15.16.44 20.35z" fill="#46b9d4"></path><path d="M412.87 372.08l-67.82 262.05c-5.19 20 7.73 36.1 27.28 29.26 31.16-10.91 63.95-33.86 96-64.69 14.92-14.37 21.14-43 15.09-62.84l-50.2-164.22c-6.05-19.81-15.16-19.64-20.35.44z" fill="#28cdfc"></path><path d="M367.71 319.16l-263.9 80.61c-19.8 6.05-28.33 26-18.17 44 53.09 94.28 123.15 177.62 189.77 211.08 18.51 9.3 39.32-3.35 44.5-23.4l74.26-287c5.2-19.99-6.65-31.34-26.46-25.29z" fill="#5087fc"></path><path d="M391.84 236.17L330.4 35C324.35 15.23 302.64-.9 282 0 154.13 5.84 37.1 41 8.62 108a130.66 130.66 0 0 0-8.3 29c-2.83 16.54 13.6 34.4 33.68 39.59l332.52 86.05c20.02 5.19 31.37-6.64 25.32-26.47z" fill="#14b3d6"></path><path d="M338.92 281.33l-304-78.68c-20-5.19-35 7.39-31.3 27.76 7.13 38.73 20.37 80.91 38 123.31 8 19.12 31.27 29.37 51.08 23.31l246.67-75.35c19.79-6.05 19.63-15.16-.45-20.35z" fill="#50a5d6"></path></g></g></svg></svg> <!----></g> <g transform="translate(0,66.23012161254883)"><g transform="translate(0,0)"><g><path transform="translate(-2.265625,31.796875)" d="M2.27-8.67L2.27-8.67L2.27-3.98L16.56-3.98L2.27-1.64L2.27 3.16L20.16-0.70L37.73 3.16L37.73-1.64L23.59-3.98L37.73-3.98L37.73-8.67L22.97-8.67L22.97-9.92L17.19-9.92L17.19-8.67L2.27-8.67L2.27-8.67ZM31.41-10.39L31.41-10.39L37.03-10.39L37.03-30.31L22.34-30.31L22.81-31.80L16.48-31.80L16.02-30.31L2.97-30.31L2.97-10.39L8.59-10.39L8.59-25.70L31.41-25.70L31.41-10.39L31.41-10.39ZM9.77-15.70L9.77-15.70L15.47-15.70L10.23-14.45L10.23-10.31L16.48-11.95L16.48-15.70L17.66-15.70L17.66-10.94L22.50-10.94L22.50-15.63L23.67-15.63L23.67-11.80L29.92-10.31L29.92-14.53L24.45-15.63L30.23-15.63L30.23-19.69L23.98-19.69L29.92-21.17L29.92-25.16L23.67-23.59L23.67-19.69L22.50-19.69L22.50-24.53L17.66-24.53L17.66-19.69L16.48-19.69L16.48-23.59L10.23-25.23L10.23-21.17L16.17-19.69L9.77-19.69L9.77-15.70L9.77-15.70ZM42.27-15.55L42.27-15.55L44.69-15.55L44.69 2.62L49.84 2.62L49.84-15.55L52.42-15.55L52.42-20.23L49.84-20.23L49.84-31.48L44.69-31.48L44.69-20.23L42.27-20.23L42.27-15.55L42.27-15.55ZM71.33-25.63L71.33-25.63L71.33-30L68.13-30L68.13-31.48L62.97-31.48L62.97-30L53.52-30L53.52-25.63L62.97-25.63L62.97-24.61L53.75-24.61L53.75-8.52L58.67-8.52L58.67-10.08L62.97-10.08L62.97-8.52L68.13-8.52L68.13-10.08L72.42-10.08L72.42-8.67L77.19-8.67L77.19-24.61L68.13-24.61L68.13-25.63L71.33-25.63L71.33-25.63ZM58.67-15.39L58.67-15.39L62.97-15.39L62.97-14.14L58.67-14.14L58.67-15.39L58.67-15.39ZM58.67-20.47L58.67-20.47L62.97-20.47L62.97-19.22L58.67-19.22L58.67-20.47L58.67-20.47ZM68.13-20.47L68.13-20.47L72.42-20.47L72.42-19.22L68.13-19.22L68.13-20.47L68.13-20.47ZM68.13-15.39L68.13-15.39L72.42-15.39L72.42-14.14L68.13-14.14L68.13-15.39L68.13-15.39ZM71.48-31.25L71.48-31.25L73.67-25.78L78.36-25.78L76.25-31.25L71.48-31.25L71.48-31.25ZM52.66-7.50L52.66-7.50L52.66-3.13L70.08-3.13L70.08-1.64L64.06-1.64L64.06 2.62L75.08 2.62L75.08-3.13L77.66-3.13L77.66-7.50L75.08-7.50L75.08-8.28L70.08-8.28L70.08-7.50L52.66-7.50L52.66-7.50ZM56.41 1.52L56.41 1.52L61.95 1.52L59.77-2.11L54.22-2.11L56.41 1.52L56.41 1.52ZM105.63-27.27L105.63-27.27L107.03-31.48L101.33-31.48L96.88-19.53L99.69-19.53L99.69 3.01L105.16 3.01L105.16 2.15L118.13 2.15L118.13-3.05L113.20-3.05L113.20-6.02L117.50-6.02L117.50-11.17L113.20-11.17L113.20-13.98L117.50-13.98L117.50-19.30L113.20-19.30L113.20-21.95L118.13-21.95L118.13-27.27L113.67-27.27L112.50-30.94L107.34-30.94L108.52-27.27L105.63-27.27L105.63-27.27ZM90.31-13.05L90.31-13.05L90.55-13.05L90.55-2.73L88.67-2.73L88.67 2.62L96.02 2.62L96.02-13.05L98.44-13.05L98.44-18.36L96.02-18.36L96.02-25.23L98.36-25.23L98.36-30.55L81.88-30.55L81.88-25.23L90.55-25.23L90.55-18.36L87.89-18.36L88.91-23.91L83.44-23.91L81.56-13.05L85-13.05L80.86 2.62L86.17 2.62L90.31-13.05L90.31-13.05ZM105.16-11.17L105.16-11.17L105.16-13.98L107.81-13.98L107.81-11.17L105.16-11.17L105.16-11.17ZM105.16-3.05L105.16-3.05L105.16-6.02L107.81-6.02L107.81-3.05L105.16-3.05L105.16-3.05ZM105.16-19.30L105.16-19.30L105.16-21.95L107.81-21.95L107.81-19.30L105.16-19.30L105.16-19.30Z"></path></g> <!----></g> </g></g></svg>