<svg data-v-627e8a35="" version="1.0" xmlns="http://www.w3.org/2000/svg" width="100%" height="100%" viewBox="0 0 340.000000 250.000000" preserveAspectRatio="xMidYMid meet" color-interpolation-filters="sRGB" class="el-tooltip" style="margin: auto;"><rect data-v-627e8a35="" x="0" y="0" width="100%" height="100%" fill="#fff" fill-opacity="1"></rect>  <g data-v-627e8a35="" fill="#009fab" transform="translate(61.025421142578125,95)"><g transform="translate(0,0)"><rect fill="#009fab" fill-opacity="0" x="0" y="0" width="53.09452276404" height="60"></rect> <svg x="0" y="0" width="53.09452276404" height="60"><svg xmlns="http://www.w3.org/2000/svg" viewBox="0 0 76.58 86.54"><defs><linearGradient id="aa15709b4-b353-48f0-9aa6-9dd37a33b69c" x1="1871.33" y1="-1127.97" x2="1894.63" y2="-1168.32" gradientTransform="matrix(-.97 .25 .25 .97 2163.5 693.98)" gradientUnits="userSpaceOnUse"><stop offset="0" stop-color="#89c997"></stop><stop offset=".49" stop-color="#41b9b2"></stop><stop offset="1" stop-color="#009fab"></stop></linearGradient><linearGradient id="b77248589-b0b2-45de-96c0-2bb15c1313ff" x1="1455.33" y1="-557.74" x2="1513.89" y2="-557.74" gradientTransform="rotate(-139.5 868.367 12.177)" gradientUnits="userSpaceOnUse"><stop offset="0" stop-color="#89c997"></stop><stop offset=".49" stop-color="#41b9b2"></stop><stop offset="1" stop-color="#009fab"></stop></linearGradient><linearGradient id="c16f7f15b-6942-4a7e-8be5-a0747e9ff1e9" x1="1419.7" y1="36.71" x2="1458.88" y2="36.71" gradientTransform="rotate(-165.69 730.605 139.061)" gradientUnits="userSpaceOnUse"><stop offset="0" stop-color="#89c997"></stop><stop offset=".49" stop-color="#41b9b2"></stop><stop offset="1" stop-color="#009fab"></stop></linearGradient><linearGradient id="d2d69415b-f0b2-43a1-9275-612b04e02e07" x1="1135.98" y1="575.63" x2="1161.68" y2="575.63" gradientTransform="rotate(166.62 611.196 259.535)" gradientUnits="userSpaceOnUse"><stop offset="0" stop-color="#89c997"></stop><stop offset=".49" stop-color="#41b9b2"></stop><stop offset="1" stop-color="#009fab"></stop></linearGradient></defs><g><g><path d="M49.95 42c.79 18.6 1.56 38.88-15.56 44.54C61.08 79.78 70 64.36 67.93 40.25 66.16 19.67 59.09 4.43 76.58 0 49.51 6.86 49.21 24.73 49.95 42z" fill="url(#aa15709b4-b353-48f0-9aa6-9dd37a33b69c)"></path><path d="M24.42 48.48c9 11.68 19.89 25.11 10.5 36.12 14.18-16.6 12.73-30.83.34-45.5C24.68 26.57 11.93 21.32 23.35 7.95 9 24.8 16 37.63 24.42 48.48z" fill="url(#b77248589-b0b2-45de-96c0-2bb15c1313ff)"></path><path d="M16.54 65.74c8.87 4.35 19.35 9.21 17 18.59 3.61-14.16-1.45-22.27-13.21-27.42C10.24 52.51 1 53.12 3.94 41.72.28 56.09 8.3 61.7 16.54 65.74z" fill="url(#c16f7f15b-6942-4a7e-8be5-a0747e9ff1e9)"></path><path d="M14.64 78.7c6.48-.18 14-.55 15.52 5.63-2.22-9.33-7.63-12.49-16-11.9C6.94 72.94 1.79 76.1 0 68.59c2.25 9.46 8.62 10.28 14.64 10.11z" fill="url(#d2d69415b-f0b2-43a1-9275-612b04e02e07)"></path></g></g></svg></svg> <!----></g> <g transform="translate(60.09452438354492,6.170022964477539)"><g transform="translate(0,0)"><g><path transform="translate(-1.2053571428571,25.989570617676)" d="M16.56-22.50L16.56-22.50L16.56-22.50Q17.19-24.06 17.19-24.69L17.19-24.69L17.19-24.69Q17.81-26.25 19.38-25.94L19.38-25.94L19.38-25.94Q21.88-25.63 20.94-24.38L20.94-24.38L20.94-24.38Q20.31-23.44 20-22.50L20-22.50L20-22.50Q24.38-22.50 27.81-22.19L27.81-22.19L27.81-22.19Q28.44-22.19 29.38-22.81L29.38-22.81L29.38-22.81Q32.19-23.44 31.88-20L31.88-20L31.88-20Q31.25-16.25 31.56-10.63L31.56-10.63L31.56-10.63Q35.31-10.31 39.38-10.31L39.38-10.31L39.38-10.31Q36.56-5.31 33.44-6.56L33.44-6.56L33.44-6.56Q27.81-8.75 20.94-8.75L20.94-8.75L20.94-8.75Q19.69-6.56 16.88-4.06L16.88-4.06L16.88-4.06Q14.69-2.50 12.50-1.56L12.50-1.56L12.50-1.56Q9.38-0.31 7.81-1.56L7.81-1.56L7.81-1.56Q6.56-2.50 6.25-3.75L6.25-3.75L6.25-3.75Q6.25-4.06 7.50-4.06L7.50-4.06L7.50-4.06Q10.94-4.38 14.69-6.25L14.69-6.25L14.69-6.25Q16.88-7.50 17.50-9.06L17.50-9.06L17.50-9.06Q8.44-8.75 2.81-6.88L2.81-6.88L2.81-6.88Q0.94-6.25 1.25-8.13L1.25-8.13L1.25-8.13Q1.56-9.69 2.19-10.31L2.19-10.31L2.19-10.31Q2.81-11.25 3.44-11.25L3.44-11.25L3.44-11.25Q5.63-10.63 8.13-10.94L8.13-10.94L8.13-10.94Q8.44-16.25 7.81-21.56L7.81-21.56L7.81-21.56Q8.13-23.75 10.63-23.13L10.63-23.13L10.63-23.13Q12.19-22.19 16.56-22.50ZM12.81-17.50L12.81-17.50L12.81-17.50Q17.50-17.19 18.44-17.19L18.44-17.19L18.44-17.19Q18.75-18.75 18.44-19.38L18.44-19.38L18.44-19.38Q20-20.94 21.56-19.38L21.56-19.38L21.56-17.19L26.25-17.19L26.25-17.19Q27.19-17.19 27.50-16.56L27.50-16.56L27.50-16.56Q27.50-15.63 26.56-15.63L26.56-15.63L21.56-15.63L21.56-15.63Q21.25-15 21.56-13.44L21.56-13.44L21.56-13.44Q20.94-12.81 20-12.81L20-12.81L20-12.81Q18.75-12.50 18.44-13.75L18.44-13.75L18.44-15.63L18.44-15.63Q14.06-15.63 12.50-15.31L12.50-15.31L12.50-15.31Q11.25-15.94 12.81-17.50ZM11.25-10.94L11.25-10.94L11.25-10.94Q14.38-10.63 18.13-10.94L18.13-10.94L18.13-10.94Q18.44-11.56 18.75-11.88L18.75-11.88L18.75-11.88Q20.31-12.50 21.56-11.56L21.56-11.56L21.56-10.94L28.44-10.63L28.44-19.06L28.44-19.06Q28.75-20.63 26.25-20.94L26.25-20.94L13.44-20.94L13.44-20.94Q11.56-20.94 11.25-20L11.25-20L11.25-20Q10.94-15.31 11.25-10.94ZM15.94-20.31L15.94-20.31L15.94-20.31Q16.25-19.38 17.19-18.44L17.19-18.44L17.19-18.44Q17.19-17.81 16.56-17.81L16.56-17.81L16.56-17.81Q15-17.81 14.06-18.75L14.06-18.75L14.06-18.75Q13.44-19.69 14.38-20.31L14.38-20.31L14.38-20.31Q15-20.63 15.94-20.31ZM17.50-14.06L17.50-14.06L17.50-14.06Q15.31-12.50 13.75-11.88L13.75-11.88L13.75-11.88Q12.50-11.56 12.81-12.50L12.81-12.50L12.81-12.50Q14.69-14.06 16.25-15.31L16.25-15.31L16.25-15.31Q17.50-15.63 17.50-14.06ZM24.69-20.31L24.69-20.31L24.69-20.31Q26.56-20.31 26.56-19.06L26.56-19.06L26.56-19.06Q25.63-17.81 23.75-17.50L23.75-17.50L23.75-17.50Q23.13-17.50 23.13-18.13L23.13-18.13L23.13-18.13Q24.06-19.06 24.69-20.31ZM24.69-15L24.69-15L24.69-15Q25.94-13.75 27.19-12.81L27.19-12.81L27.19-12.81Q27.50-12.19 26.88-12.19L26.88-12.19L26.88-12.19Q24.38-12.81 23.13-14.06L23.13-14.06L23.13-14.06Q22.81-14.69 23.75-15.31L23.75-15.31L23.75-15.31Q24.38-15.31 24.69-15ZM24.69-7.50L24.69-7.50L24.69-7.50Q29.06-4.38 33.13-1.88L33.13-1.88L33.13-1.88Q34.38-0.63 32.50-0.63L32.50-0.63L32.50-0.63Q25.31-2.81 23.13-4.69L23.13-4.69L23.13-4.69Q21.88-5.63 22.50-7.19L22.50-7.19L22.50-7.19Q23.44-8.13 24.69-7.50ZM58.13-13.75L58.13-13.75L58.13-13.75Q60-13.44 61.88-13.75L61.88-13.75L61.88-13.75Q62.50-14.38 61.88-15L61.88-15L61.88-15Q60.31-15.31 59.06-15L59.06-15L59.06-15Q57.81-14.69 58.13-13.75ZM61.88-19.06L61.88-19.06L61.88-19.06Q62.19-20 61.88-20.63L61.88-20.63L61.88-20.63Q60-20.94 57.50-20.31L57.50-20.31L57.50-20.31Q55.31-19.69 54.69-19.38L54.69-19.38L54.69-19.38Q53.44-19.06 53.44-20.31L53.44-20.31L53.44-20.31Q54.06-22.19 55.31-22.19L55.31-22.19L55.31-22.19Q56.25-22.19 57.50-22.19L57.50-22.19L57.50-22.19Q61.25-21.88 61.56-22.81L61.56-22.81L61.56-24.06L61.56-24.06Q61.56-25.63 63.75-25.31L63.75-25.31L63.75-25.31Q65.94-25 65.94-23.44L65.94-23.44L65.94-23.44Q65.63-22.81 65.63-22.19L65.63-22.19L70.63-22.19L70.63-22.19Q72.50-22.19 74.69-21.56L74.69-21.56L74.69-21.56Q75.63-20.31 73.75-20.31L73.75-20.31L65.63-20.63L65.63-20.63Q65.31-19.69 65.63-19.06L65.63-19.06L65.63-19.06Q66.88-18.75 69.06-19.06L69.06-19.06L69.06-19.06Q70.31-19.69 71.25-19.38L71.25-19.38L71.25-19.38Q73.13-18.13 72.50-16.56L72.50-16.56L72.50-16.56Q72.19-15 72.50-13.44L72.50-13.44L72.50-13.44Q73.44-10.31 71.25-10.63L71.25-10.63L71.25-10.63Q70-10.63 69.69-12.50L69.69-12.50L68.75-12.50L68.75-12.50Q67.50-12.50 65.63-12.19L65.63-12.19L65.63-12.19Q65.63-11.56 65-10.94L65-10.94L65-10.94Q64.06-10.31 62.50-10.63L62.50-10.63L62.50-10.63Q61.56-10.63 61.56-11.56L61.56-11.56L61.88-12.19L61.88-12.19Q60.63-12.50 59.06-12.19L59.06-12.19L58.13-12.19L58.13-12.19Q58.13-10.63 56.88-10.31L56.88-10.31L56.88-10.31Q54.69-10 55-11.56L55-11.56L55-11.56Q55.31-12.50 55.31-13.13L55.31-13.13L55.31-13.13Q55.63-16.25 55.31-18.13L55.31-18.13L55.31-18.13Q55.63-19.69 57.19-19.38L57.19-19.38L57.19-19.38Q59.38-18.75 61.88-19.06ZM43.75-19.69L43.75-19.69L43.75-19.69Q45.94-19.06 46.56-19.38L46.56-19.38L46.56-19.38Q46.56-21.56 46.25-22.50L46.25-22.50L46.25-22.50Q45.94-23.75 47.19-24.06L47.19-24.06L47.19-24.06Q48.44-24.38 49.38-23.75L49.38-23.75L49.38-23.75Q50.31-23.13 50.31-21.88L50.31-21.88L50.31-21.88Q50-20.94 50-19.38L50-19.38L51.25-19.38L51.25-19.38Q52.19-19.38 53.13-19.06L53.13-19.06L53.13-19.06Q54.06-16.88 51.56-17.19L51.56-17.19L50-17.19L50-17.19Q49.69-14.06 50-3.13L50-3.13L50-3.13Q50-0.94 47.50-0.94L47.50-0.94L47.50-0.94Q45.94-0.94 45.94-3.13L45.94-3.13L45.94-3.13Q46.56-6.88 46.56-17.19L46.56-17.19L46.56-17.19Q45.63-17.19 42.19-16.56L42.19-16.56L42.19-16.56Q40.94-16.25 40.94-17.50L40.94-17.50L40.94-17.50Q41.88-19.69 43.75-19.69ZM65.63-17.50L65.63-17.50L65.63-17.50Q65-16.88 65.63-16.25L65.63-16.25L65.63-16.25Q67.19-15.94 69.38-16.25L69.38-16.25L69.38-16.25Q70.31-16.25 69.69-16.88L69.69-16.88L69.69-16.88Q69.38-17.50 68.44-17.50L68.44-17.50L68.44-17.50Q66.56-17.81 65.63-17.50ZM58.44-16.56L58.44-16.56L58.44-16.56Q60-16.25 61.88-16.25L61.88-16.25L61.88-16.25Q62.19-16.88 61.88-17.50L61.88-17.50L61.88-17.50Q60.63-17.81 59.06-17.50L59.06-17.50L59.06-17.50Q57.81-17.19 58.44-16.56ZM55.94-9.69L55.94-9.69L55.94-9.69Q61.56-10 66.56-10L66.56-10L66.56-10Q67.19-11.88 68.13-11.56L68.13-11.56L68.13-11.56Q70-11.25 70-10L70-10L70-10Q76.56-9.69 79.06-9.69L79.06-9.69L79.06-9.69Q77.19-5.63 74.38-6.56L74.38-6.56L74.38-6.56Q71.56-7.50 69.69-7.81L69.69-7.81L69.69-7.81Q69.38-5.63 69.69-3.75L69.69-3.75L69.69-3.75Q69.38-1.25 66.25-0.63L66.25-0.63L66.25-0.63Q62.50 0 58.44-2.81L58.44-2.81L58.44-2.81Q57.50-4.06 58.75-4.06L58.75-4.06L58.75-4.06Q63.75-1.88 65.94-4.06L65.94-4.06L65.94-4.06Q66.88-5.31 66.56-8.13L66.56-8.13L66.56-8.13Q55.94-8.13 52.50-6.56L52.50-6.56L52.50-6.56Q50.94-5.94 50.94-7.50L50.94-7.50L50.94-7.50Q51.88-10 53.13-10L53.13-10L53.13-10Q54.38-9.69 55.94-9.69ZM70.63-24.69L70.63-24.69L70.63-24.69Q70.94-23.75 70-23.13L70-23.13L70-23.13Q69.06-22.50 67.50-22.50L67.50-22.50L67.50-22.50Q66.56-22.81 67.19-23.44L67.19-23.44L67.19-23.44Q68.44-24.38 69.06-25.31L69.06-25.31L69.06-25.31Q69.69-25.94 70.63-24.69ZM62.81-7.19L62.81-7.19L62.81-7.19Q63.44-6.56 64.69-5.63L64.69-5.63L64.69-5.63Q65.31-4.06 62.19-5L62.19-5L62.19-5Q59.38-5.63 60.63-7.50L60.63-7.50L60.63-7.50Q61.56-8.13 62.81-7.19ZM65.63-13.44L65.63-13.44L65.63-13.44Q67.50-13.75 69.38-13.75L69.38-13.75L69.38-13.75Q70-14.38 69.38-14.69L69.38-14.69L69.38-14.69Q67.19-15 65.63-14.69L65.63-14.69L65.63-14.69Q65-14.06 65.63-13.44ZM94.38-20.94L94.38-16.88L94.38-16.88Q98.44-16.88 98.44-15.94L98.44-15.94L98.44-15.94Q98.75-15 97.81-15L97.81-15L94.38-15L94.38-15Q94.06-8.75 94.69-5L94.69-5L94.69-5Q94.69-2.81 93.13-1.88L93.13-1.88L93.13-1.88Q90.63-0.63 88.13-2.19L88.13-2.19L88.13-2.19Q86.56-3.44 86.25-4.38L86.25-4.38L86.25-4.38Q86.25-4.69 88.13-4.06L88.13-4.06L88.13-4.06Q90-3.75 90.94-5L90.94-5L90.94-5Q91.56-6.56 91.56-12.19L91.56-12.19L91.56-12.19Q89.06-9.38 86.88-7.50L86.88-7.50L86.88-7.50Q84.38-5 81.88-6.88L81.88-6.88L81.88-6.88Q80.63-7.81 82.19-8.44L82.19-8.44L82.19-8.44Q87.19-10.63 91.25-15L91.25-15L91.25-15Q88.44-15 86.56-14.06L86.56-14.06L86.56-14.06Q85.31-14.06 85-15L85-15L85-15Q84.69-15.63 85.31-16.56L85.31-16.56L85.31-16.56Q86.25-18.44 87.19-20.94L87.19-20.94L87.19-20.94Q85.94-20.63 85.31-20.31L85.31-20.31L85.31-20.31Q83.13-20 84.38-22.19L84.38-22.19L84.38-22.19Q85.63-23.75 86.88-23.44L86.88-23.44L86.88-23.44Q89.06-22.81 97.19-23.13L97.19-23.13L97.19-23.13Q99.06-22.50 97.19-21.25L97.19-21.25L94.38-20.94ZM106.25-6.56L106.25-8.75L102.50-8.75L102.50-6.56L106.25-6.56ZM113.75-12.81L109.69-12.81L109.69-10.94L109.69-10.94Q114.69-10.94 114.69-10L114.69-10L114.69-10Q114.38-8.75 113.44-8.75L113.44-8.75L109.69-8.75L109.69-6.56L112.50-6.56L112.50-6.56Q119.06-6.25 119.06-5.63L119.06-5.63L119.06-5.63Q117.19-2.19 115.31-2.50L115.31-2.50L115.31-2.50Q111.56-3.75 107.50-4.06L107.50-4.06L102.50-4.06L102.50-1.88L102.50-1.88Q102.19-0.94 100.63-0.63L100.63-0.63L100.63-0.63Q99.06-0.63 98.75-1.88L98.75-1.88L98.75-1.88Q99.38-10 99.06-18.44L99.06-18.44L99.06-18.44Q97.19-17.50 95.63-19.69L95.63-19.69L95.63-19.69Q95.63-20.31 95.94-20.63L95.94-20.63L95.94-20.63Q96.88-20.94 97.81-20.94L97.81-20.94L97.81-20.94Q101.88-21.88 105.31-25.31L105.31-25.31L105.31-25.31Q106.25-25.94 106.88-25L106.88-25L106.88-25Q107.19-24.06 106.56-23.13L106.56-23.13L106.56-23.13Q107.81-22.50 108.75-22.81L108.75-22.81L108.75-22.81Q110.31-23.44 111.56-22.50L111.56-22.50L111.56-22.50Q112.50-21.56 110.94-20.63L110.94-20.63L110.94-20.63Q110-19.69 108.75-18.44L108.75-18.44L108.75-18.44Q112.50-18.75 115-18.44L115-18.44L115-18.44Q115.31-18.13 115.31-17.81L115.31-17.81L115.31-17.81Q115.31-16.88 114.38-16.88L114.38-16.88L109.69-16.88L109.69-14.69L111.56-14.69L111.56-14.69Q112.50-14.69 113.75-14.38L113.75-14.38L113.75-14.38Q115-13.44 113.75-12.81L113.75-12.81ZM90.31-16.88L91.56-16.88L91.56-20.94L89.38-20.94L89.38-20.94Q89.06-19.69 88.75-18.75L88.75-18.75L88.75-18.75Q87.81-16.88 90.31-16.88L90.31-16.88ZM102.19-19.69L102.50-18.44L105-18.44L105-18.44Q106.56-18.75 107.19-20L107.19-20L107.19-20Q107.81-20.94 105.63-21.88L105.63-21.88L105.63-21.88Q104.38-20.94 102.19-19.69L102.19-19.69ZM106.25-14.69L106.25-16.56L102.50-16.56L102.50-14.69L106.25-14.69ZM102.50-12.81L102.50-10.94L106.25-10.94L106.25-12.81L102.50-12.81ZM125-23.44L125-23.44L125-23.44Q125.63-24.06 126.56-23.75L126.56-23.75L126.56-23.75Q130-21.56 134.69-19.38L134.69-19.38L134.69-19.38Q134.69-19.06 134.06-18.75L134.06-18.75L134.06-18.75Q128.44-18.13 124.69-20L124.69-20L124.69-20Q122.50-21.25 125-23.44ZM122.19-15.31L122.19-15.31L122.19-15.31Q122.50-17.19 124.06-16.88L124.06-16.88L124.06-16.88Q126.56-15.63 130.94-14.69L130.94-14.69L130.94-14.69Q134.38-14.06 134.38-13.44L134.38-13.44L134.38-13.44Q135-12.81 129.06-12.19L129.06-12.19L129.06-12.19Q120.94-11.56 122.19-15.31ZM125.63-6.88L125.63-6.88L125.63-6.88Q129.69-7.81 133.44-10L133.44-10L133.44-10Q134.69-10.31 134.38-9.38L134.38-9.38L134.38-9.38Q133.44-7.81 130.94-5L130.94-5L130.94-5Q125.94-0.63 123.44-3.44L123.44-3.44L123.44-3.44Q122.19-5.63 125.63-6.88ZM137.50-24.06L137.50-24.06L137.50-24.06Q139.06-23.75 141.56-23.44L141.56-23.44L141.56-23.44Q153.75-23.75 155.31-22.50L155.31-22.50L155.31-22.50Q156.25-20.31 153.75-20.31L153.75-20.31L153.75-20.31Q147.50-20.94 141.25-20.94L141.25-20.94L141.25-20.94Q139.06-20.94 139.06-19.38L139.06-19.38L139.06-6.88L139.06-6.88Q139.06-5.94 139.69-5.94L139.69-5.94L139.69-5.94Q154.06-5 159.06-5.63L159.06-5.63L159.06-5.63Q156.88-1.25 154.38-0.63L154.38-0.63L154.38-0.63Q153.13-0.63 150-1.88L150-1.88L150-1.88Q147.19-2.81 140.31-2.81L140.31-2.81L140.31-2.81Q138.44-2.50 136.56-1.88L136.56-1.88L136.56-1.88Q134.69-2.50 134.69-4.38L134.69-4.38L134.69-4.38Q135.31-6.25 135.63-7.81L135.63-7.81L135.63-7.81Q135.94-17.81 135.31-21.88L135.31-21.88L135.31-21.88Q135.31-23.75 137.50-24.06Z"></path></g> <!----></g> <g fill="#333" transform="translate(52.2270393371582,32.98813247680664)"><!----> <!----> <!----> <g><rect x="0" y="0" width="53.400001525878906" height="14.670000076293945"></rect> <!----> <g transform="translate(5,3)"><g fill="#fff"><path transform="translate(-0.1875,8.578125)" d="M6.56 0L5.72-2.48L2.25-2.48L1.36 0L0.19 0L3.42-8.58L4.73-8.58L7.83 0L6.56 0ZM3.98-7.31L2.63-3.52L5.30-3.52L4.03-7.31L3.98-7.31ZM8.39-3.14L8.39-3.14L8.39-3.14Q8.58-6.33 11.30-6.47L11.30-6.47L11.30-6.47Q14.02-6.33 14.20-3.14L14.20-3.14L14.20-3.14Q14.02 0 11.30 0.09L11.30 0.09L11.30 0.09Q8.58 0 8.39-3.14ZM9.47-3.14L9.47-3.14L9.47-3.14Q9.61-0.80 11.30-0.75L11.30-0.75L11.30-0.75Q12.98-0.80 13.13-3.14L13.13-3.14L13.13-3.14Q12.98-5.48 11.30-5.53L11.30-5.53L11.30-5.53Q9.61-5.48 9.47-3.14ZM18.75-7.64L16.69-7.64L16.69-4.97L18.75-4.97L18.75-4.97Q20.58-4.92 20.53-6.38L20.53-6.38L20.53-6.38Q20.53-7.64 18.75-7.64L18.75-7.64ZM19.22 0L15.52 0L15.52-8.58L19.31-8.58L19.31-8.58Q21.61-8.48 21.70-6.42L21.70-6.42L21.70-6.42Q21.70-5.16 20.58-4.64L20.58-4.64L20.58-4.64Q22.17-4.08 22.17-2.53L22.17-2.53L22.17-2.53Q22.03-0.09 19.22 0L19.22 0ZM18.94-3.98L16.69-3.98L16.69-0.98L19.17-0.98L19.17-0.98Q20.95-1.03 21-2.53L21-2.53L21-2.53Q21-3.98 18.94-3.98L18.94-3.98ZM23.02-3.14L23.02-3.14L23.02-3.14Q23.20-6.33 25.92-6.47L25.92-6.47L25.92-6.47Q28.64-6.33 28.83-3.14L28.83-3.14L28.83-3.14Q28.64 0 25.92 0.09L25.92 0.09L25.92 0.09Q23.20 0 23.02-3.14ZM24.09-3.14L24.09-3.14L24.09-3.14Q24.23-0.80 25.92-0.75L25.92-0.75L25.92-0.75Q27.61-0.80 27.75-3.14L27.75-3.14L27.75-3.14Q27.61-5.48 25.92-5.53L25.92-5.53L25.92-5.53Q24.23-5.48 24.09-3.14ZM37.08-8.58L33.84-3.47L33.84 0L32.67 0L32.67-3.47L29.44-8.58L30.80-8.58L33.23-4.45L35.72-8.58L37.08-8.58ZM38.95-4.36L38.95-4.36L37.97-4.36L37.97-4.36Q38.02-6.47 40.55-6.47L40.55-6.47L40.55-6.47Q42.80-6.38 42.84-4.69L42.84-4.69L42.84-1.08L42.84-1.08Q42.84-0.70 43.22-0.70L43.22-0.70L43.22-0.70Q43.27-0.70 43.36-0.70L43.36-0.70L43.36-0.70Q43.50-0.75 43.59-0.75L43.59-0.75L43.59 0L43.59 0Q43.50 0 43.36 0L43.36 0L43.36 0Q43.13 0.05 42.98 0.05L42.98 0.05L42.98 0.05Q41.86 0.05 41.91-0.84L41.91-0.84L41.91-0.84Q40.97 0.09 39.61 0.09L39.61 0.09L39.61 0.09Q37.73 0 37.64-1.64L37.64-1.64L37.64-1.64Q37.69-3.33 39.56-3.61L39.56-3.61L41.30-3.80L41.30-3.80Q41.86-3.89 41.86-4.55L41.86-4.55L41.86-4.55Q41.86-5.58 40.36-5.58L40.36-5.58L40.36-5.58Q39.05-5.58 38.95-4.36ZM41.81-2.16L41.81-2.16L41.81-3.19L41.81-3.19Q41.44-2.95 40.08-2.77L40.08-2.77L40.08-2.77Q38.77-2.67 38.77-1.78L38.77-1.78L38.77-1.78Q38.77-0.70 39.84-0.70L39.84-0.70L39.84-0.70Q41.67-0.84 41.81-2.16Z"></path></g></g></g></g></g></g></svg>